<svg id="visual" viewBox="0 0 900 600" width="900" height="600" xmlns="http://www.w3.org/2000/svg" xmlns:xlink="http://www.w3.org/1999/xlink" version="1.1"><path d="M0 398L21.5 395.2C43 392.3 86 386.7 128.8 392.5C171.7 398.3 214.3 415.7 257.2 420C300 424.3 343 415.7 385.8 405.3C428.7 395 471.3 383 514.2 387.3C557 391.7 600 412.3 642.8 420.7C685.7 429 728.3 425 771.2 423.7C814 422.3 857 423.7 878.5 424.3L900 425L900 601L878.5 601C857 601 814 601 771.2 601C728.3 601 685.7 601 642.8 601C600 601 557 601 514.2 601C471.3 601 428.7 601 385.8 601C343 601 300 601 257.2 601C214.3 601 171.7 601 128.8 601C86 601 43 601 21.5 601L0 601Z" fill="#ff7369"></path><path d="M0 459L21.5 449.5C43 440 86 421 128.8 424.3C171.7 427.7 214.3 453.3 257.2 454.3C300 455.3 343 431.7 385.8 419.7C428.7 407.7 471.3 407.3 514.2 405.2C557 403 600 399 642.8 407.5C685.7 416 728.3 437 771.2 439.2C814 441.3 857 424.7 878.5 416.3L900 408L900 601L878.5 601C857 601 814 601 771.2 601C728.3 601 685.7 601 642.8 601C600 601 557 601 514.2 601C471.3 601 428.7 601 385.8 601C343 601 300 601 257.2 601C214.3 601 171.7 601 128.8 601C86 601 43 601 21.5 601L0 601Z" fill="#ff988c"></path><path d="M0 462L21.5 463.8C43 465.7 86 469.3 128.8 469.3C171.7 469.3 214.3 465.7 257.2 466.3C300 467 343 472 385.8 470.8C428.7 469.7 471.3 462.3 514.2 466.2C557 470 600 485 642.8 494.2C685.7 503.3 728.3 506.7 771.2 507.8C814 509 857 508 878.5 507.5L900 507L900 601L878.5 601C857 601 814 601 771.2 601C728.3 601 685.7 601 642.8 601C600 601 557 601 514.2 601C471.3 601 428.7 601 385.8 601C343 601 300 601 257.2 601C214.3 601 171.7 601 128.8 601C86 601 43 601 21.5 601L0 601Z" fill="#ffbbb1"></path><path d="M0 515L21.5 515.5C43 516 86 517 128.8 515.7C171.7 514.3 214.3 510.7 257.2 511.3C300 512 343 517 385.8 513C428.7 509 471.3 496 514.2 490.7C557 485.3 600 487.7 642.8 488C685.7 488.3 728.3 486.7 771.2 495.2C814 503.7 857 522.3 878.5 531.7L900 541L900 601L878.5 601C857 601 814 601 771.2 601C728.3 601 685.7 601 642.8 601C600 601 557 601 514.2 601C471.3 601 428.7 601 385.8 601C343 601 300 601 257.2 601C214.3 601 171.7 601 128.8 601C86 601 43 601 21.5 601L0 601Z" fill="#ffddd7"></path><path d="M0 555L21.5 556C43 557 86 559 128.8 559.5C171.7 560 214.3 559 257.2 553.5C300 548 343 538 385.8 539C428.7 540 471.3 552 514.2 554.8C557 557.7 600 551.3 642.8 548.8C685.7 546.3 728.3 547.7 771.2 545.7C814 543.7 857 538.3 878.5 535.7L900 533L900 601L878.5 601C857 601 814 601 771.2 601C728.3 601 685.7 601 642.8 601C600 601 557 601 514.2 601C471.3 601 428.7 601 385.8 601C343 601 300 601 257.2 601C214.3 601 171.7 601 128.8 601C86 601 43 601 21.5 601L0 601Z" fill="#ffffff"></path></svg>